<svg width="24" height="24" viewBox="0 0 24 24" fill="none" xmlns="http://www.w3.org/2000/svg">
<g clip-path="url(#clip0_2018_25858)">
<path d="M8.57146 20.9826L0.857178 23.1426L3.01718 15.4284L17.1429 1.37125C17.3025 1.20798 17.4933 1.07824 17.7036 0.989668C17.9141 0.901094 18.1403 0.855469 18.3686 0.855469C18.5969 0.855469 18.8231 0.901094 19.0336 0.989668C19.2439 1.07824 19.4347 1.20798 19.5943 1.37125L22.6286 4.42268C22.7892 4.58204 22.9168 4.77166 23.0039 4.98054C23.0909 5.18945 23.1357 5.41352 23.1357 5.63982C23.1357 5.86613 23.0909 6.0902 23.0039 6.2991C22.9168 6.50801 22.7892 6.69761 22.6286 6.85697L8.57146 20.9826Z" stroke="#252F4C" stroke-width="1.71429" stroke-linecap="round" stroke-linejoin="round"/>
</g>
<defs>
<clipPath id="clip0_2018_25858">
<rect width="24" height="24" fill="white"/>
</clipPath>
</defs>
</svg>
